<?xml version="1.0" encoding="UTF-8"?>
<svg xmlns="http://www.w3.org/2000/svg" style="display:none">
  <!-- Basic UI -->
  <symbol id="menu" viewBox="0 0 24 24"><path d="M3 6h18v2H3zm0 5h18v2H3zm0 5h18v2H3z"/></symbol>
  <symbol id="close" viewBox="0 0 24 24"><path d="M18.3 5.71 12 12l6.3 6.29-1.41 1.42L10.59 13.41 4.3 19.71 2.89 18.3 9.17 12 2.89 5.71 4.3 4.29 10.59 10.59 16.89 4.29z"/></symbol>
  <symbol id="sun" viewBox="0 0 24 24"><path d="M6.76 4.84 5.35 3.43 3.93 4.84l1.41 1.41zM1 13h3v-2H1zm10 10h2v-3h-2zM19 13h3v-2h-3zM11 1h2v3h-2zm6.65 3.43 1.41 1.41 1.41-1.41-1.41-1.41zM12 6a6 6 0 100 12 6 6 0 000-12zm-7.07 12.49-1.41 1.41 1.41 1.41 1.41-1.41zM18.36 18.36l1.41 1.41 1.41-1.41-1.41-1.41z"/></symbol>
  <symbol id="moon" viewBox="0 0 24 24"><path d="M21 12.79A9 9 0 1111.21 3 7 7 0 0021 12.79z"/></symbol>

  <!-- Icons for sections -->
  <symbol id="spark" viewBox="0 0 24 24"><path d="M11 21h2l1-7h4l-8-11-1 7H5z"/></symbol>
  <symbol id="code" viewBox="0 0 24 24"><path d="M8 9l-4 3 4 3V9zm8 0v6l4-3-4-3zM10 19l4-14"/></symbol>
  <symbol id="server" viewBox="0 0 24 24"><path d="M3 5h18v6H3zM3 13h18v6H3zM6 7h2v2H6zm0 8h2v2H6z"/></symbol>
  <symbol id="app" viewBox="0 0 24 24"><path d="M4 4h7v7H4zM13 4h7v7h-7zM4 13h7v7H4zM13 13h7v7h-7z"/></symbol>
  <symbol id="shop" viewBox="0 0 24 24"><path d="M4 7h16l-1 12H5zM3 7l2-4h14l2 4zM8 3v4M12 3v4M16 3v4"/></symbol>
  <symbol id="tools" viewBox="0 0 24 24"><path d="M7 8l-4 4 3 3 4-4M22 7l-3 3-4-4 3-3M13 14l7 7"/></symbol>

  <!-- Social -->
  <symbol id="instagram" viewBox="0 0 24 24"><path d="M7 2h10a5 5 0 015 5v10a5 5 0 01-5 5H7a5 5 0 01-5-5V7a5 5 0 015-5zm5 5a5 5 0 105 5 5 5 0 00-5-5zm6-1a1 1 0 11-1 1 1 1 0 011-1z"/></symbol>
  <symbol id="telegram" viewBox="0 0 24 24"><path d="M21 3L3 11l6 2 2 6 3-4 4 3z"/></symbol>
  <symbol id="whatsapp" viewBox="0 0 24 24"><path d="M12 2a10 10 0 00-8.94 14.48L2 22l5.7-1.98A10 10 0 1012 2zm5.1 14.3c-.2.6-1.2 1.1-1.7 1.1s-1 .3-3.4-.7-4-3.5-4.1-3.6-.9-1.2-.9-2S7.3 9 7.6 8.7s.6-.3.8-.3.4 0 .6.01.5-.08.7.52.8 1.8.8 1.9.1.4 0 .5-.2.3-.4.5-.4.3-.2.7.9 1.6 2 2.6 2.3 1.3 2.7 1.5.6.1.8-.1.5-.6.6-.8.3-.4.5-.3.8.4.9.5.2.3.1.5z"/></symbol>
  <symbol id="linkedin" viewBox="0 0 24 24"><path d="M4 3a2 2 0 110 4 2 2 0 010-4zM3 8h3v13H3zM10 8h3v2h.1A3.3 3.3 0 0116 8c3.6 0 4 2.4 4 5.6V21h-3v-6.1c0-1.5 0-3.4-2-3.4s-2.3 1.6-2.3 3.3V21H10z"/></symbol>
  <symbol id="github" viewBox="0 0 24 24"><path d="M12 2a10 10 0 00-3.16 19.49c.5.09.68-.22.68-.48v-1.7c-2.78.6-3.37-1.2-3.37-1.2a2.65 2.65 0 00-1.1-1.45c-.9-.62.07-.6.07-.6a2.1 2.1 0 011.53 1 2.14 2.14 0 002.92.84 2.14 2.14 0 01.64-1.34C9.1 15.84 6.67 15 6.67 11.5a3.6 3.6 0 01.95-2.5 3.33 3.33 0 01.09-2.46s.84-.27 2.75 1a9.5 9.5 0 015 0c1.91-1.3 2.75-1 2.75-1a3.33 3.33 0 01.09 2.46 3.6 3.6 0 01.95 2.5c0 3.54-2.43 4.34-4.74 4.56a2.4 2.4 0 01.68 1.86v2.76c0 .26.18.57.68.47A10 10 0 0012 2z"/></symbol>
  <symbol id="x" viewBox="0 0 24 24"><path d="M17.6 3H21l-8.1 9.24L22.4 21h-7.8L10 15.5 5.5 21H2l8.8-10L2.1 3H10l3.2 5.1zm-1.4 16h2.2l-5.7-8.7L19.6 5h-2.1l-5.2 6.4z"/></symbol>

  <!-- Marks -->
  <symbol id="check" viewBox="0 0 24 24"><path d="M9 16.17l-3.88-3.88L4 13.41 9 18.41 20.59 6.83 19.17 5.41z"/></symbol>
  <symbol id="minus" viewBox="0 0 24 24"><path d="M5 11h14v2H5z"/></symbol>
  <symbol id="chev-down" viewBox="0 0 24 24"><path d="M7 10l5 5 5-5z"/></symbol>
  <symbol id="arrow-up" viewBox="0 0 24 24"><path d="M4 12l1.41 1.41L11 7.83V20h2V7.83l5.59 5.58L20 12l-8-8z"/></symbol>

  <!-- Misc -->
  <symbol id="bulb" viewBox="0 0 24 24"><path d="M9 21h6v-1H9zm3-19a7 7 0 00-4 12.9V17h8v-2.1A7 7 0 0012 2z"/></symbol>
  <symbol id="medal" viewBox="0 0 24 24"><path d="M12 1l3 6 7 1-5 5 1 7-6-3-6 3 1-7-5-5 7-1z"/></symbol>
  <symbol id="heart" viewBox="0 0 24 24"><path d="M12 21s-7-4.35-10-8.5A6 6 0 117 4a6 6 0 0110 8.5C19 16.65 12 21 12 21z"/></symbol>
  <symbol id="users" viewBox="0 0 24 24"><path d="M16 11a4 4 0 10-8 0 4 4 0 008 0zm-9 5a7 7 0 0114 0v3H7z"/></symbol>
</svg>